<?xml version="1.0" encoding="UTF-8" standalone="no"?>
<!-- Created with Inkscape (http://www.inkscape.org/) -->

<svg
   xmlns:dc="http://purl.org/dc/elements/1.1/"
   xmlns:cc="http://creativecommons.org/ns#"
   xmlns:rdf="http://www.w3.org/1999/02/22-rdf-syntax-ns#"
   xmlns:svg="http://www.w3.org/2000/svg"
   xmlns="http://www.w3.org/2000/svg"
   xmlns:sodipodi="http://sodipodi.sourceforge.net/DTD/sodipodi-0.dtd"
   xmlns:inkscape="http://www.inkscape.org/namespaces/inkscape"
   width="5.2034674mm"
   height="10.034101mm"
   viewBox="0 0 5.2034674 10.0341"
   version="1.1"
   id="svg12249"
   inkscape:version="0.92.4 (5da689c313, 2019-01-14)"
   sodipodi:docname="dollar.svg">
  <defs
     id="defs12243" />
  <sodipodi:namedview
     id="base"
     pagecolor="#ffffff"
     bordercolor="#666666"
     borderopacity="1.0"
     inkscape:pageopacity="0.0"
     inkscape:pageshadow="2"
     inkscape:zoom="3.959798"
     inkscape:cx="-0.48399034"
     inkscape:cy="-16.894533"
     inkscape:document-units="mm"
     inkscape:current-layer="flowRoot10888"
     showgrid="false"
     inkscape:window-width="1280"
     inkscape:window-height="657"
     inkscape:window-x="-8"
     inkscape:window-y="-8"
     inkscape:window-maximized="1" />
  <metadata
     id="metadata12246">
    <rdf:RDF>
      <cc:Work
         rdf:about="">
        <dc:format>image/svg+xml</dc:format>
        <dc:type
           rdf:resource="http://purl.org/dc/dcmitype/StillImage" />
        <dc:title />
      </cc:Work>
    </rdf:RDF>
  </metadata>
  <g
     inkscape:label="Layer 1"
     inkscape:groupmode="layer"
     id="layer1"
     transform="translate(-40.518344,-110.53333)">
    <g
       aria-label="$"
       transform="matrix(0.46108951,0,0,0.46108951,-583.60143,-261.248)"
       style="font-style:normal;font-variant:normal;font-weight:normal;font-stretch:normal;font-size:24px;line-height:1.25;font-family:sans-serif;-inkscape-font-specification:'sans-serif, Normal';font-variant-ligatures:normal;font-variant-caps:normal;font-variant-numeric:normal;font-feature-settings:normal;text-align:start;letter-spacing:0px;word-spacing:0px;writing-mode:lr-tb;text-anchor:start;fill:#555555;fill-opacity:1;stroke:none"
       id="flowRoot10888">
      <path
         d="m 1359.6934,828.07227 h -1.1719 l -0.012,-3.52735 q -1.2305,-0.0234 -2.461,-0.28125 -1.2304,-0.26953 -2.4726,-0.79687 v -2.10938 q 1.1953,0.75 2.414,1.13672 1.2305,0.375 2.5313,0.38672 v -5.34375 q -2.5899,-0.42188 -3.7735,-1.42969 -1.1718,-1.00781 -1.1718,-2.76562 0,-1.91016 1.2773,-3.01172 1.2774,-1.10156 3.668,-1.26563 v -2.7539 h 1.1719 v 2.71875 q 1.0898,0.0469 2.1093,0.23437 1.0196,0.17578 1.9922,0.49219 v 2.05078 q -0.9726,-0.49219 -2.0039,-0.76172 -1.0195,-0.26953 -2.0976,-0.3164 v 5.0039 q 2.6601,0.41016 3.914,1.46485 1.2539,1.05468 1.2539,2.88281 0,1.98047 -1.3359,3.1289 -1.3242,1.13672 -3.832,1.3125 z m -1.1719,-12.55079 v -4.80468 q -1.3594,0.15234 -2.0742,0.77343 -0.7149,0.6211 -0.7149,1.65235 0,1.00781 0.6563,1.57031 0.6679,0.5625 2.1328,0.80859 z m 1.1719,2.25 v 5.07422 q 1.4882,-0.19922 2.2382,-0.84375 0.7618,-0.64453 0.7618,-1.69922 0,-1.03125 -0.7266,-1.64062 -0.7148,-0.60938 -2.2734,-0.89063 z"
         style="font-size:24px;fill:#555555;fill-opacity:1"
         id="path14042" />
    </g>
  </g>
</svg>
