<?xml version="1.0" encoding="UTF-8" standalone="no"?>
<!-- Created with Inkscape (http://www.inkscape.org/) -->

<svg
   xmlns:dc="http://purl.org/dc/elements/1.1/"
   xmlns:cc="http://creativecommons.org/ns#"
   xmlns:rdf="http://www.w3.org/1999/02/22-rdf-syntax-ns#"
   xmlns:svg="http://www.w3.org/2000/svg"
   xmlns="http://www.w3.org/2000/svg"
   xmlns:sodipodi="http://sodipodi.sourceforge.net/DTD/sodipodi-0.dtd"
   xmlns:inkscape="http://www.inkscape.org/namespaces/inkscape"
   width="10.558388mm"
   height="10.495157mm"
   viewBox="0 0 10.558388 10.495157"
   version="1.1"
   id="svg12249"
   inkscape:version="0.92.4 (5da689c313, 2019-01-14)"
   sodipodi:docname="Earth.svg">
  <defs
     id="defs12243" />
  <sodipodi:namedview
     id="base"
     pagecolor="#ffffff"
     bordercolor="#666666"
     borderopacity="1.0"
     inkscape:pageopacity="0.0"
     inkscape:pageshadow="2"
     inkscape:zoom="0.98994949"
     inkscape:cx="144.95979"
     inkscape:cy="-34.541942"
     inkscape:document-units="mm"
     inkscape:current-layer="layer1"
     showgrid="false"
     inkscape:window-width="1280"
     inkscape:window-height="657"
     inkscape:window-x="-8"
     inkscape:window-y="-8"
     inkscape:window-maximized="1" />
  <metadata
     id="metadata12246">
    <rdf:RDF>
      <cc:Work
         rdf:about="">
        <dc:format>image/svg+xml</dc:format>
        <dc:type
           rdf:resource="http://purl.org/dc/dcmitype/StillImage" />
        <dc:title></dc:title>
      </cc:Work>
    </rdf:RDF>
  </metadata>
  <g
     inkscape:label="Layer 1"
     inkscape:groupmode="layer"
     id="layer1"
     transform="translate(-13.974903,-110.17798)">
    <path
       style="fill:#555555;fill-opacity:1;stroke-width:0.02261428"
       id="path10768"
       d="m 18.822046,120.64737 c -0.331692,-0.0375 -0.72232,-0.11426 -0.74184,-0.14585 -0.0118,-0.0192 0.0422,-0.0472 0.119958,-0.0623 0.186132,-0.0361 0.189332,-0.0361 0.474001,-0.001 0.161851,0.0198 0.25522,0.0137 0.274849,-0.0181 0.02101,-0.0339 0.0808,-0.0276 0.202892,0.0213 0.155299,0.0621 0.276709,0.065 0.478109,0.0114 0.0383,-0.0102 0.0602,0.008 0.0528,0.0425 -0.009,0.0421 0.01061,0.0502 0.0655,0.0269 0.043,-0.0181 0.13717,-0.0298 0.209241,-0.0259 l 0.131019,0.007 -0.10525,-0.0741 -0.105251,-0.0741 0.100001,-0.037 c 0.0638,-0.0236 0.122002,-0.0187 0.160839,0.0135 0.0781,0.0648 0.61545,0.0186 0.831242,-0.0716 0.0855,-0.0357 0.216909,-0.0657 0.29204,-0.0665 0.0751,-7.2e-4 0.185729,-0.0296 0.24579,-0.064 0.12138,-0.0693 0.21836,-0.0834 0.21836,-0.0315 0,0.0394 -0.428169,0.23008 -0.807931,0.35989 -0.515751,0.17626 -1.45926,0.26164 -2.096299,0.18969 z m 1.16654,-0.70085 c -0.156899,-0.0645 -0.24458,-0.22033 -0.173532,-0.30849 0.031,-0.0385 0.0263,-0.0548 -0.0159,-0.0553 -0.0422,-5.8e-4 -0.045,-0.0102 -0.01,-0.0327 0.0277,-0.0176 0.0636,-0.13035 0.0799,-0.25045 0.0163,-0.1201 0.0553,-0.30681 0.0866,-0.41488 0.0314,-0.10809 0.0567,-0.23582 0.0564,-0.28388 -5.3e-4,-0.0925 0.0376,-0.38387 0.0822,-0.62583 0.0358,-0.19386 -0.0504,-0.34426 -0.257871,-0.45009 -0.092,-0.047 -0.178009,-0.11886 -0.19108,-0.15981 -0.0649,-0.20343 -0.215921,-0.50796 -0.336251,-0.67814 -0.117469,-0.16613 -0.0373,-0.52112 0.156872,-0.69446 0.117171,-0.1046 0.137178,-0.15034 0.125471,-0.28661 -0.008,-0.0892 -0.0298,-0.17198 -0.0492,-0.18398 -0.01929,-0.0121 -0.0371,-0.0415 -0.0394,-0.0655 -0.0021,-0.024 -0.0288,-0.0437 -0.0588,-0.0437 -0.03,0 -0.0499,0.024 -0.0441,0.0534 0.01371,0.0693 -0.24816,0.0209 -0.33007,-0.0611 -0.0319,-0.0318 -0.0761,-0.0579 -0.0985,-0.0579 -0.0223,0 -0.0405,-0.0261 -0.0405,-0.0579 0,-0.0936 -0.18441,-0.23591 -0.349391,-0.26965 -0.0841,-0.0172 -0.195929,-0.0708 -0.248568,-0.11913 -0.0642,-0.0589 -0.16873,-0.0918 -0.317201,-0.0998 -0.227539,-0.0123 -0.461549,-0.12368 -0.415689,-0.19788 0.01421,-0.023 -0.033,-0.0417 -0.105212,-0.0417 -0.163618,0 -0.214079,-0.0732 -0.107788,-0.1564 0.0444,-0.0348 0.0594,-0.058 0.0332,-0.0517 -0.0397,0.01 -0.207499,-0.16087 -0.33261,-0.33784 -0.01699,-0.024 -0.0906,-0.11246 -0.163579,-0.19653 l -0.132712,-0.15285 0.0685,0.14194 c 0.0377,0.0781 0.0861,0.14194 0.10759,0.14194 0.02151,0 0.0285,0.0275 0.01561,0.0611 -0.01288,0.0336 -0.0021,0.0741 0.0232,0.0899 0.02559,0.0159 0.0467,0.0602 0.0467,0.0985 0,0.0607 -0.0113,0.0595 -0.0874,-0.009 -0.048,-0.0435 -0.0874,-0.10609 -0.0874,-0.13915 0,-0.0331 -0.03,-0.0717 -0.0668,-0.0858 -0.0408,-0.0156 -0.0571,-0.0562 -0.0419,-0.10414 0.01371,-0.0431 0.004,-0.0911 -0.0205,-0.10659 -0.025,-0.0154 -0.0455,-0.0633 -0.0455,-0.10647 0,-0.0431 -0.0473,-0.12948 -0.105222,-0.19192 -0.16051,-0.1732 -0.204658,-0.45292 -0.10881,-0.68926 0.088,-0.217 0.10505,-0.38913 0.0385,-0.38913 -0.02511,0 -0.0331,-0.0455 -0.01831,-0.10441 0.01439,-0.0575 0.005,-0.11755 -0.02101,-0.13359 -0.02609,-0.0162 -0.0472,0.001 -0.0472,0.0389 0,0.0375 -0.0204,0.0681 -0.0453,0.0681 -0.0249,0 -0.0415,-0.0442 -0.0369,-0.0983 0.01601,-0.18647 -0.006,-0.2511 -0.0832,-0.2511 -0.0992,0 -0.407239,0.15571 -0.45231,0.22861 -0.01881,0.0304 -0.0496,0.0555 -0.0685,0.0558 -0.01889,2.5e-4 -0.1252,0.0634 -0.23623,0.14021 -0.111041,0.0768 -0.213432,0.12814 -0.22754,0.11404 -0.0141,-0.0141 0.0373,-0.0681 0.11424,-0.11992 0.0769,-0.0519 0.146611,-0.13287 0.15482,-0.18007 0.008,-0.0472 0.087,-0.14963 0.174989,-0.22764 0.088,-0.078 0.122991,-0.12892 0.0777,-0.11314 -0.12546,0.0437 -0.0661,-0.0827 0.07,-0.14912 0.0617,-0.0301 0.123921,-0.0989 0.138291,-0.15286 0.0345,-0.12975 0.3362,-0.33795 0.492511,-0.33987 0.0682,-6.9e-4 0.241948,-0.0266 0.386069,-0.0572 0.144119,-0.0306 0.33442,-0.0508 0.422889,-0.0448 0.13219,0.009 0.159789,-0.004 0.15486,-0.0686 -0.005,-0.0645 -0.0204,-0.0705 -0.0824,-0.0317 -0.0421,0.0263 -0.09,0.0342 -0.106511,0.0177 -0.0417,-0.0417 0.0664,-0.16318 0.145269,-0.16318 0.038,0 0.055,-0.0256 0.0411,-0.0619 -0.01569,-0.0408 0.0312,-0.0861 0.13726,-0.13282 0.0886,-0.039 0.121729,-0.0619 0.0737,-0.051 -0.115271,0.0263 -0.37369,0.11679 -0.468879,0.16426 -0.0417,0.0207 -0.115411,0.0378 -0.163782,0.0378 -0.0484,0 -0.0879,0.0174 -0.0879,0.0385 0,0.038 -0.311288,0.16288 -0.52406,0.21032 -0.0946,0.0211 -0.0887,0.0103 0.0436,-0.0807 0.472911,-0.32505 0.893292,-0.50403 1.54123,-0.65617 0.332211,-0.078 0.539012,-0.0947 1.188321,-0.0958 0.783399,-10e-4 1.371139,0.069 1.2422,0.1487 -0.0324,0.02 -0.0753,0.0262 -0.0954,0.0137 -0.02011,-0.0125 -0.24066,-0.0286 -0.490088,-0.0358 -0.380672,-0.0111 -0.449651,-0.003 -0.42936,0.0498 0.01331,0.0346 0.0488,0.0536 0.0789,0.042 0.075,-0.0288 0.427669,0.15526 0.655859,0.34222 0.10346,0.0848 0.204661,0.15416 0.224862,0.15416 0.02019,0 0.0623,0.0409 0.0934,0.0908 0.0496,0.0795 0.046,0.0936 -0.0288,0.11313 -0.11245,0.0294 -0.143142,0.20689 -0.0711,0.41113 0.0317,0.0898 0.048,0.17268 0.0364,0.1843 -0.0399,0.04 -0.298021,-0.11709 -0.466291,-0.28369 -0.0927,-0.0917 -0.189489,-0.15382 -0.215159,-0.13795 -0.0258,0.0159 -0.0341,0.008 -0.0186,-0.0166 0.0154,-0.025 -0.0021,-0.0705 -0.0389,-0.10109 -0.0368,-0.0306 -0.0569,-0.082 -0.0446,-0.11413 0.01259,-0.0329 -0.006,-0.0585 -0.0431,-0.0585 -0.036,0 -0.0768,-0.0295 -0.0906,-0.0655 -0.01378,-0.036 -0.046,-0.0655 -0.0716,-0.0655 -0.02561,0 -0.0784,-0.0288 -0.117349,-0.0642 -0.0522,-0.0473 -0.104832,-0.054 -0.19997,-0.0256 -0.071,0.0212 -0.10299,0.0402 -0.0711,0.0423 0.0942,0.006 0.406839,0.3483 0.393309,0.43048 -0.007,0.0415 5.3e-4,0.0961 0.0164,0.12128 0.0158,0.0251 0.01101,0.0743 -0.01079,0.10918 -0.0336,0.0539 -0.0676,0.0487 -0.226391,-0.035 -0.102769,-0.0541 -0.220099,-0.0983 -0.26072,-0.0983 -0.0989,1.7e-4 -0.144791,-0.0815 -0.0633,-0.11275 0.0357,-0.0137 0.0761,-0.0541 0.0898,-0.0899 0.01871,-0.0487 0.004,-0.0581 -0.0621,-0.0373 -0.0641,0.0203 -0.0871,0.008 -0.0871,-0.0481 0,-0.0417 -0.01291,-0.0628 -0.0288,-0.047 -0.0158,0.0158 -0.0502,0.0109 -0.0764,-0.0108 -0.0329,-0.0273 -0.0475,0.008 -0.0472,0.11293 2.64e-4,0.0997 0.0271,0.16738 0.0773,0.19548 0.0422,0.0237 0.0677,0.0579 0.0564,0.0761 -0.0113,0.0182 0.0326,0.0254 0.0973,0.016 0.0795,-0.0115 0.18179,0.0261 0.314322,0.11562 0.151509,0.10232 0.199758,0.11805 0.210648,0.0687 0.02151,-0.0976 0.0624,-0.0794 0.248412,0.11116 0.0941,0.0964 0.19022,0.16884 0.213588,0.16105 0.0493,-0.0164 0.16325,0.0899 0.268412,0.25041 0.0736,0.11229 0.18035,0.16021 0.128159,0.0575 -0.01519,-0.03 0.01299,-0.008 0.0629,0.0485 0.0499,0.0567 0.0904,0.13533 0.09,0.1747 -5.29e-4,0.0622 -0.006,0.063 -0.043,0.006 -0.0376,-0.0582 -0.0428,-0.0582 -0.0465,0 -0.003,0.045 -0.01111,0.0484 -0.02609,0.0109 -0.0352,-0.0873 -0.224501,-0.0683 -0.217339,0.0218 0.004,0.0484 -0.03,0.0815 -0.0922,0.0904 -0.0541,0.008 -0.0983,0.0349 -0.0983,0.0604 0,0.0289 -0.0658,0.0375 -0.174681,0.023 -0.14265,-0.0191 -0.174871,-0.0102 -0.17567,0.0488 -5.29e-4,0.0397 -0.0394,0.12141 -0.0864,0.18146 -0.047,0.0601 -0.0858,0.13615 -0.0864,0.16911 -7.94e-4,0.0508 -0.01249,0.0508 -0.0766,0 -0.0702,-0.0556 -0.0701,-0.0511 0.0011,0.0614 0.0854,0.13366 0.0706,0.17781 -0.109828,0.32967 -0.123212,0.10368 -0.16339,0.28255 -0.0756,0.33677 0.0642,0.0397 0.134579,0.23676 0.102911,0.288 -0.0378,0.0613 -0.152721,-0.0472 -0.219702,-0.2074 -0.04141,-0.099 -0.09461,-0.14365 -0.195228,-0.16377 -0.21459,-0.0429 -0.302112,-0.0332 -0.302112,0.0338 0,0.0395 -0.0305,0.0534 -0.0856,0.039 -0.0989,-0.0259 -0.364538,0.12547 -0.460338,0.26223 -0.0841,0.12012 -0.083,0.26405 0.004,0.4462 0.0804,0.16948 0.145558,0.20293 0.32521,0.167 0.0899,-0.018 0.13929,-0.0588 0.157117,-0.12983 0.01429,-0.057 0.0485,-0.10511 0.0759,-0.10696 0.0274,-0.001 0.0842,-0.01 0.126111,-0.0179 0.113919,-0.0218 0.132189,0.0463 0.0533,0.19875 -0.0387,0.075 -0.0594,0.14747 -0.0458,0.16105 0.01349,0.0135 0.0021,0.0519 -0.0254,0.0851 -0.0415,0.05 -0.0217,0.0572 0.11476,0.0422 0.27042,-0.0298 0.323871,0.001 0.321321,0.187 -0.004,0.31344 0.0975,0.44394 0.27305,0.34998 0.0579,-0.031 0.11057,-0.031 0.168659,1.7e-4 0.112349,0.0601 0.11757,0.0591 0.213021,-0.0434 0.0454,-0.0487 0.119869,-0.0962 0.165481,-0.10541 0.0456,-0.009 0.120538,-0.0317 0.166518,-0.0499 0.0587,-0.0232 0.0742,-0.0178 0.052,0.0181 -0.01741,0.0281 -0.0108,0.0511 0.01471,0.0511 0.0254,0 0.0463,-0.0185 0.0463,-0.0411 0,-0.0226 0.0526,-0.0137 0.11698,0.0196 0.0643,0.0334 0.13615,0.0488 0.159589,0.0344 0.02339,-0.0145 0.03,-0.006 0.0145,0.0191 -0.0154,0.025 0.0159,0.0572 0.0697,0.0717 0.137429,0.0368 0.17228,0.0336 0.143308,-0.0132 -0.01381,-0.0224 -0.0021,-0.0549 0.02601,-0.0722 0.0319,-0.0198 0.0395,-0.0127 0.02,0.0188 -0.029,0.0469 0.0319,0.0677 0.181431,0.0621 0.03,-0.001 0.055,0.0302 0.0554,0.0696 0.0011,0.1002 0.298749,0.33535 0.466371,0.36843 0.16896,0.0334 0.318949,0.15382 0.318949,0.25618 0,0.0413 0.02101,0.088 0.0465,0.10381 0.0305,0.0188 0.0195,0.0612 -0.0316,0.12268 -0.043,0.0516 -0.0504,0.0696 -0.0164,0.0398 0.05,-0.0439 0.113919,-0.0254 0.338809,0.0983 0.152428,0.0838 0.312729,0.15235 0.356208,0.15235 0.0435,0 0.113451,0.038 0.155462,0.0844 0.042,0.0464 0.104009,0.0738 0.137779,0.0609 0.0444,-0.0171 0.0614,0.013 0.0614,0.10857 0,0.0932 -0.0573,0.19929 -0.194321,0.35977 -0.106871,0.1252 -0.20761,0.28894 -0.22388,0.36386 -0.0448,0.20661 -0.2408,0.45602 -0.400679,0.50998 -0.0781,0.0264 -0.141941,0.0754 -0.141941,0.10902 0,0.0336 -0.054,0.0959 -0.120101,0.13833 -0.0661,0.0424 -0.15554,0.12106 -0.19886,0.17464 -0.214468,0.26529 -0.448141,0.45136 -0.54536,0.43428 -0.0754,-0.0132 -0.0969,7.1e-4 -0.0874,0.0573 0.0136,0.0803 -0.0805,0.21935 -0.148421,0.21935 -0.0227,0 -0.148019,0.0922 -0.27854,0.20487 -0.15763,0.13609 -0.21975,0.21571 -0.18502,0.23715 0.0367,0.0227 0.0204,0.0592 -0.0546,0.12266 -0.10018,0.0847 -0.102078,0.0941 -0.0305,0.14979 0.042,0.0326 0.0764,0.0697 0.0764,0.0823 0,0.0554 -0.165,0.0571 -0.296501,0.003 z m -0.175719,-7.51156 c -0.0315,-0.0126 -0.0692,-0.0111 -0.0837,0.004 -0.0145,0.0145 0.0113,0.0249 0.0573,0.023 0.0509,-0.002 0.0612,-0.0125 0.02641,-0.0264 z m 0.295979,-0.19808 c 7.93e-4,-0.0173 -0.0279,-0.02 -0.064,-0.006 -0.0383,0.0147 -0.0658,5.8e-4 -0.0662,-0.0342 -5.29e-4,-0.0483 -0.008,-0.0479 -0.0396,0.002 -0.0236,0.0373 -0.02011,0.10268 0.009,0.16616 l 0.0477,0.10469 0.0559,-0.10066 c 0.0307,-0.0553 0.0565,-0.11478 0.0574,-0.13205 z m -1.395979,0.12281 c 0,-0.009 -0.0449,-0.0453 -0.0998,-0.0813 -0.0895,-0.0587 -0.10912,-0.0579 -0.18999,0.008 -0.0877,0.071 -0.0849,0.0732 0.0998,0.0813 0.104501,0.004 0.189992,0.001 0.189992,-0.008 z m -0.105041,-0.22481 c -0.0792,-0.058 -0.0794,-0.0621 -0.004,-0.091 0.0434,-0.0166 0.152649,-0.0106 0.24279,0.0135 0.13903,0.0371 0.16008,0.0338 0.13875,-0.0217 -0.0163,-0.0424 -0.007,-0.0545 0.02561,-0.0342 0.0279,0.0173 0.0853,0.0113 0.127522,-0.0133 0.0697,-0.0406 0.0683,-0.0448 -0.01601,-0.046 -0.0711,-10e-4 -0.0928,-0.0285 -0.0928,-0.11802 0,-0.0642 -0.0368,-0.14364 -0.0819,-0.17657 -0.0451,-0.0329 -0.077,-0.0689 -0.071,-0.0798 0.0303,-0.0553 0.004,-0.1073 -0.0546,-0.1073 -0.0361,0 -0.0655,-0.0212 -0.0655,-0.0473 0,-0.026 -0.02461,-0.0385 -0.0546,-0.0278 -0.03,0.0108 -0.0895,0.001 -0.13207,-0.0203 -0.0602,-0.0309 -0.102539,-0.0101 -0.18959,0.0934 -0.0616,0.0733 -0.12792,0.12346 -0.14723,0.11153 -0.01929,-0.012 -0.0463,0.007 -0.0599,0.043 -0.0137,0.0356 -0.01079,0.0603 0.006,0.055 0.01709,-0.006 0.0861,0.0458 0.153221,0.11363 0.0764,0.0772 0.14814,0.11331 0.191762,0.0966 0.0901,-0.0346 0.24089,0.013 0.20833,0.0657 -0.01381,0.0223 -0.0546,0.0405 -0.0906,0.0405 -0.0384,0 -0.0526,-0.0209 -0.0344,-0.0504 0.0195,-0.0315 0.01201,-0.0385 -0.02,-0.0188 -0.0281,0.0174 -0.0398,0.0499 -0.02601,0.0723 0.01381,0.0224 0.004,0.0407 -0.02109,0.0407 -0.0254,0 -0.0463,-0.0197 -0.0463,-0.0437 0,-0.0768 -0.163722,-0.0467 -0.184822,0.0341 -0.024,0.0918 0.0777,0.20797 0.12089,0.13809 0.01931,-0.0314 0.0449,-0.0313 0.0827,6e-5 0.0301,0.0249 0.0677,0.0325 0.0835,0.0166 0.0158,-0.0158 0.0288,-0.003 0.0288,0.0295 0,0.032 0.01471,0.0435 0.0327,0.0256 0.01799,-0.018 -0.005,-0.06 -0.0504,-0.0934 z m 0.323408,-0.23526 c 0,-0.0226 0.01939,-0.0531 0.0431,-0.0678 0.02479,-0.0153 0.0321,0.002 0.0172,0.0411 -0.0291,0.0756 -0.0604,0.0895 -0.0604,0.0267 z m -0.548489,-0.11037 c -0.0466,-0.0353 -0.0618,-0.0648 -0.0338,-0.0655 0.083,-0.002 0.189179,0.0486 0.189179,0.0906 0,0.0572 -0.0591,0.0477 -0.155418,-0.0251 z m 1.46561,0.42596 c 0,-0.005 -0.0373,-0.0293 -0.0828,-0.0537 -0.059,-0.0316 -0.0955,-0.0289 -0.127303,0.009 -0.0335,0.0404 -0.01299,0.0537 0.0828,0.0537 0.07,0 0.127299,-0.004 0.127299,-0.009 z m -0.655091,-0.0998 c 0,-0.024 -0.0307,-0.0437 -0.0681,-0.0437 -0.0375,0 -0.056,0.0197 -0.0411,0.0437 0.0149,0.024 0.0455,0.0436 0.0681,0.0436 0.0226,0 0.0411,-0.0197 0.0411,-0.0436 z m 0.152861,0 c -0.0149,-0.024 -0.0356,-0.0437 -0.0463,-0.0437 -0.01061,0 -0.01929,0.0197 -0.01929,0.0437 0,0.024 0.0208,0.0436 0.0463,0.0436 0.0254,0 0.0341,-0.0197 0.01929,-0.0436 z m -1.41937,-0.21982 c -0.0554,-0.037 -0.047,-0.0602 0.0546,-0.15009 0.0661,-0.0584 0.120102,-0.13065 0.120102,-0.16042 0,-0.0297 -0.0278,-0.016 -0.0619,0.0306 -0.0341,0.0466 -0.0766,0.07 -0.0946,0.052 -0.01799,-0.018 -0.01,-0.0327 0.01831,-0.0327 0.028,0 0.0509,-0.0295 0.0509,-0.0655 0,-0.0848 -0.0826,-0.0849 -0.115129,-2.6e-4 -0.01381,0.0359 -0.0429,0.0542 -0.0648,0.0407 -0.02191,-0.0135 -0.0285,-0.0429 -0.01471,-0.0652 0.01381,-0.0224 0.006,-0.0407 -0.0186,-0.0407 -0.024,0 -0.056,0.02 -0.0711,0.0444 -0.01511,0.0244 -0.0478,0.0318 -0.0727,0.0164 -0.0292,-0.0181 -0.02429,-0.0414 0.01389,-0.0655 0.0482,-0.0306 0.0471,-0.0374 -0.006,-0.0367 -0.0829,0.001 -0.303921,0.12517 -0.226711,0.12726 0.0315,7.2e-4 0.0462,0.0193 0.0327,0.0412 -0.01349,0.0217 0.01979,0.0304 0.0738,0.0191 l 0.0983,-0.0205 -0.100661,0.0601 -0.10066,0.0601 0.12133,0.0553 c 0.0875,0.0399 0.12587,0.0417 0.13766,0.006 0.0118,-0.0353 0.0339,-0.0343 0.0797,0.004 0.051,0.0424 0.0524,0.0595 0.006,0.0885 -0.0369,0.0234 -0.01101,0.0359 0.0744,0.0359 0.102018,0 0.11652,-0.01 0.0655,-0.0438 z m -0.16549,-0.15598 c -0.0624,-0.0675 -0.02029,-0.0804 0.0719,-0.022 0.0326,0.0206 0.0424,0.0477 0.0218,0.0603 -0.02061,0.0125 -0.0628,-0.005 -0.0937,-0.0382 z m 1.71439,-0.0107 c -0.02468,-0.0259 -0.107689,0.0397 -0.107689,0.0851 0,0.0235 0.0275,0.0175 0.0611,-0.0135 0.0336,-0.031 0.0545,-0.0632 0.0466,-0.0716 z m -1.24318,0.0636 c 0,-0.009 -0.0305,-0.0289 -0.0678,-0.0431 -0.0389,-0.0149 -0.0564,-0.008 -0.0411,0.0172 0.02561,0.0415 0.108872,0.0613 0.108872,0.026 z m -0.66445,-0.44312 c 0.0378,-0.0329 0.01619,-0.0446 -0.0783,-0.0423 -0.0717,0.001 -0.16487,0.0411 -0.207002,0.0876 -0.075,0.0828 -0.0747,0.0829 0.01741,0.006 0.0977,-0.0809 0.177359,-0.036 0.12377,0.0699 -0.01521,0.03 -5.3e-4,0.0251 0.0322,-0.0109 0.0329,-0.0361 0.0833,-0.0859 0.11198,-0.11092 z m 0.358751,0.0647 c 0,-0.0254 -0.0196,-0.0341 -0.0436,-0.0193 -0.024,0.0149 -0.0436,0.0356 -0.0436,0.0463 0,0.0106 0.01961,0.0193 0.0436,0.0193 0.024,0 0.0436,-0.0208 0.0436,-0.0463 z m -0.230122,-0.3334 c -0.0425,-0.0111 -0.101449,-0.0103 -0.131019,10e-4 -0.0295,0.012 0.005,0.021 0.0773,0.0201 0.0721,-7.2e-4 0.0962,-0.0107 0.0538,-0.0217 z m 0.340461,-0.0487 c -0.01349,-0.0135 -0.0487,-3e-5 -0.0783,0.0298 -0.0428,0.0431 -0.0378,0.0482 0.02439,0.0244 0.0431,-0.0164 0.0673,-0.0408 0.0538,-0.0543 z m 0.50109,-0.0547 c 0,-0.0226 -0.0164,-0.0411 -0.0364,-0.0411 -0.02,0 -0.0364,0.0286 -0.0364,0.0636 0,0.035 0.0164,0.0535 0.0364,0.0411 0.02,-0.0124 0.0364,-0.041 0.0364,-0.0636 z m -0.175178,-0.0857 c -0.02601,-0.0485 -0.0327,-0.11241 -0.015,-0.14194 0.02029,-0.0338 0.004,-0.0311 -0.0428,0.007 -0.0703,0.057 -0.0703,0.066 -0.0011,0.14194 0.0956,0.10567 0.118289,0.10294 0.0594,-0.007 z m -0.22152,0.0289 c -0.01,-0.009 -0.0772,-0.0289 -0.14922,-0.045 -0.0957,-0.0214 -0.113343,-0.0174 -0.0655,0.015 0.059,0.0399 0.258549,0.0678 0.214729,0.03 z m -0.389423,-0.11933 c 0.0582,-0.0411 0.0582,-0.0442 0,-0.0271 -0.0361,0.0106 -0.104809,-7e-4 -0.152859,-0.0256 -0.0781,-0.0402 -0.081,-0.0372 -0.0274,0.0278 0.0698,0.0846 0.0917,0.0876 0.180258,0.025 z m 0.218362,-0.0601 c 0,-0.0406 -0.0254,-0.0544 -0.0692,-0.0376 -0.0557,0.0214 -0.0578,0.0337 -0.0109,0.0635 0.0776,0.0492 0.0801,0.0484 0.0801,-0.0259 z m 1.152968,-0.0232 c 0.17158,0 -0.004,-0.0957 -0.193338,-0.10542 -0.114121,-0.006 -0.205262,-0.0375 -0.238512,-0.083 -0.0778,-0.10642 -0.109688,-0.0909 -0.109688,0.0533 0,0.10406 0.01521,0.12294 0.0846,0.10479 0.0465,-0.0122 0.129271,0.009 0.183832,0.0473 0.0655,0.0459 0.113898,0.0548 0.142468,0.0262 0.02381,-0.0238 0.0826,-0.0433 0.130623,-0.0433 z m -0.978269,0 c 0,-0.024 -0.0208,-0.0436 -0.0463,-0.0436 -0.0254,0 -0.0341,0.0197 -0.01929,0.0436 0.0149,0.024 0.0356,0.0437 0.0463,0.0437 0.01061,0 0.01929,-0.0196 0.01929,-0.0437 z m 1.187359,-0.42288 c -0.0315,-0.0126 -0.0692,-0.011 -0.0837,0.004 -0.0145,0.0145 0.0113,0.0248 0.0573,0.0229 0.0509,-0.002 0.0612,-0.0124 0.02641,-0.0263 z m 1.15761,9.56629 c -0.0465,-0.0465 0.01299,-0.10309 0.108641,-0.10309 0.0752,0 0.0811,0.0109 0.0358,0.0655 -0.0587,0.0708 -0.10039,0.0816 -0.144391,0.0376 z m -4.681389,-1.06236 c -0.120088,-0.13998 -0.226268,-0.24699 -0.235979,-0.23781 -0.01,0.009 -0.0643,-0.0465 -0.12119,-0.12368 -0.105941,-0.14358 -0.2531,-0.24717 -0.355092,-0.24993 -0.0315,-7.1e-4 -0.0455,0.0173 -0.0312,0.0404 0.0155,0.0251 -0.0269,0.0235 -0.10523,-0.004 -0.102338,-0.0357 -0.161369,-0.10964 -0.268708,-0.3367 -0.221202,-0.46795 -0.223851,-0.47946 -0.122452,-0.53374 0.0509,-0.0273 0.0791,-0.0745 0.0655,-0.10998 -0.0131,-0.0342 -0.005,-0.0622 0.01839,-0.0622 0.0232,0 0.0423,-0.0307 0.0423,-0.0683 0,-0.0457 0.0324,-0.0637 0.0983,-0.0546 0.0682,0.01 0.0984,-0.009 0.0988,-0.0596 2.64e-4,-0.0403 0.015,-0.0878 0.0327,-0.10554 0.0177,-0.0177 0.0322,-0.0108 0.0322,0.0153 0,0.0261 0.0589,0.0604 0.131019,0.0763 0.0721,0.0159 0.131019,0.0536 0.131019,0.0838 0,0.0302 0.0541,0.0821 0.1201,0.11523 0.0661,0.0331 0.130932,0.0661 0.144172,0.0733 0.0132,0.007 0.01601,-0.056 0.006,-0.14054 -0.02201,-0.1882 0.0604,-0.20665 0.100809,-0.0226 0.01579,0.0721 0.0453,0.13103 0.0656,0.13103 0.02029,0 0.0609,0.0737 0.0903,0.16377 0.0295,0.0901 0.0948,0.20613 0.14532,0.25791 0.131569,0.13492 0.200999,0.22503 0.200999,0.26088 0,0.0171 0.031,0.0654 0.0688,0.10719 0.0919,0.1016 0.113699,0.429 0.0359,0.54008 -0.0336,0.0479 -0.0611,0.12169 -0.0611,0.16393 0,0.0459 -0.0448,0.0881 -0.11135,0.10474 -0.110029,0.0276 -0.110288,0.0287 -0.0218,0.0907 0.0874,0.0612 0.122089,0.14807 0.0567,0.14212 -0.01799,-0.001 -0.131022,-0.11752 -0.251111,-0.25751 z m 0.34261,-0.68035 c -0.01421,-0.037 -0.0352,-0.058 -0.0467,-0.0466 -0.01151,0.0115 -0.008,0.0418 0.008,0.0674 0.0431,0.0697 0.0682,0.0562 0.0387,-0.0208 z m 0.402261,0.85747 c -0.02601,-0.042 0.30893,-0.22185 0.415308,-0.22299 0.0525,-5.8e-4 0.052,-0.008 -0.003,-0.043 -0.0516,-0.0334 -0.0528,-0.0425 -0.006,-0.043 0.0434,-5.8e-4 0.0528,-0.037 0.0339,-0.13169 -0.01479,-0.0739 -0.008,-0.13102 0.0164,-0.13102 0.02339,0 0.0426,0.0197 0.0426,0.0436 0,0.024 0.0411,0.0848 0.0914,0.13502 l 0.0913,0.0913 -0.102259,0.0721 c -0.0562,0.0397 -0.112101,0.0723 -0.12411,0.0725 -0.01201,1.7e-4 -0.0838,0.0445 -0.159589,0.0986 -0.144841,0.10323 -0.255392,0.12504 -0.296521,0.0585 z m 0.42117,-1.06084 c -0.0288,-0.0288 -0.0524,-0.0681 -0.0524,-0.0873 0,-0.0643 0.0657,-0.0358 0.120879,0.0524 0.0597,0.0956 0.015,0.11843 -0.0685,0.0349 z m 6.869541,-0.0458 c 0.0176,-0.0541 0.0498,-0.31446 0.0717,-0.57865 0.0236,-0.28442 0.0677,-0.53033 0.10805,-0.60279 0.0575,-0.10303 0.0601,-0.15633 0.01669,-0.3372 -0.0286,-0.11945 -0.0383,-0.29295 -0.0218,-0.39078 0.0268,-0.1588 0.0208,-0.17595 -0.0615,-0.17595 -0.0519,0 -0.0912,-0.0282 -0.0912,-0.0655 0,-0.0826 -0.0839,-0.0819 -0.194242,0.001 -0.0468,0.0353 -0.119729,0.0533 -0.16212,0.0399 -0.0424,-0.0135 -0.115008,-0.004 -0.161399,0.0207 -0.109551,0.0587 -0.297618,-0.0825 -0.383331,-0.28765 -0.0334,-0.0799 -0.0851,-0.14052 -0.114809,-0.1346 -0.0387,0.008 -0.0541,-0.0722 -0.0541,-0.27986 0,-0.15983 0.01551,-0.28104 0.0344,-0.26938 0.01889,0.0116 0.0303,-0.0443 0.02519,-0.12429 -0.005,-0.08 0.0284,-0.21429 0.0743,-0.29837 0.0459,-0.0841 0.0837,-0.18234 0.084,-0.21836 2.64e-4,-0.0361 0.02019,-0.0628 0.0441,-0.0594 0.0601,0.008 0.294618,-0.16271 0.264408,-0.19295 -0.01349,-0.0135 0.008,-0.0604 0.048,-0.10441 0.0398,-0.044 0.0571,-0.08 0.0384,-0.08 -0.0186,0 -0.007,-0.0343 0.02601,-0.0764 0.0543,-0.0693 0.0528,-0.0708 -0.01651,-0.0165 -0.042,0.0329 -0.0789,0.0477 -0.0819,0.0327 -0.003,-0.0149 -0.008,-0.0518 -0.01191,-0.0818 -0.004,-0.03 -0.0432,-0.0482 -0.0881,-0.0403 -0.0724,0.0127 -0.0781,-0.005 -0.0497,-0.15286 0.0176,-0.0919 0.0303,-0.21331 0.0282,-0.26976 -0.006,-0.15991 0.0342,-0.18634 0.173173,-0.11445 0.119679,0.0619 0.128547,0.061 0.128547,-0.0135 0,-0.044 -0.0492,-0.14658 -0.109188,-0.22797 -0.129961,-0.17615 -0.130511,-0.17865 -0.0327,-0.14792 0.0691,0.0217 0.0698,0.0185 0.006,-0.0341 -0.0757,-0.0631 -0.0805,-0.0751 -0.0881,-0.22193 -0.004,-0.0739 -0.01,-0.0793 -0.02511,-0.0218 -0.01101,0.042 -0.0457,0.0764 -0.0772,0.0764 -0.0803,0 -0.118898,-0.17442 -0.0449,-0.20282 0.0327,-0.0125 0.0486,-0.0509 0.0354,-0.0852 -0.01741,-0.0453 -0.003,-0.0542 0.0541,-0.0325 0.0611,0.0234 0.0717,0.0137 0.049,-0.0454 -0.0182,-0.0475 -0.0118,-0.0648 0.0172,-0.0468 0.0254,0.0157 0.0351,0.0573 0.02151,0.0926 -0.01349,0.0352 0.02389,0.15091 0.0832,0.25708 0.0593,0.10617 0.0979,0.22768 0.0858,0.27002 -0.01249,0.0437 -2.49e-4,0.0358 0.0283,-0.0184 0.0417,-0.0788 0.0334,-0.12274 -0.0473,-0.25342 -0.0537,-0.0869 -0.0892,-0.16657 -0.0788,-0.17695 0.02569,-0.0257 0.280441,0.33984 0.316959,0.45493 0.01609,0.0509 0.0437,0.0926 0.0612,0.0926 0.0669,0 0.53008,1.03107 0.53008,1.1799 0,0.0383 -0.0317,0.0254 -0.089,-0.0362 -0.08,-0.0859 -0.172993,-0.12685 -0.172993,-0.0762 0,0.03 0.1813,0.33003 0.199472,0.33003 0.009,0 0.004,-0.0322 -0.0113,-0.0716 -0.0226,-0.0587 -0.0131,-0.0636 0.0528,-0.0267 0.0441,0.0247 0.0841,0.0815 0.0888,0.1262 0.005,0.0447 0.02101,0.14023 0.0363,0.21229 0.01519,0.0721 0.0565,0.33208 0.0917,0.57784 0.0691,0.48299 0.0352,1.10586 -0.0904,1.65844 -0.0339,0.14906 -0.0617,0.33575 -0.0618,0.41488 -2.64e-4,0.24087 -0.0856,0.47919 -0.180012,0.50389 -0.0473,0.0124 -0.13455,0.11823 -0.19383,0.23522 -0.112061,0.22113 -0.183631,0.28498 -0.128301,0.11444 z m 0.292009,-4.19111 c -0.0313,-0.0313 -0.0517,-0.0339 -0.0517,-0.006 0,0.0583 0.0516,0.10994 0.0808,0.0808 0.01241,-0.0124 -5.29e-4,-0.0458 -0.0291,-0.0743 z m -0.11504,-0.001 c -0.0366,-0.16653 -0.18592,-0.42497 -0.24589,-0.42538 -0.0799,-5.8e-4 -0.19044,0.18189 -0.161982,0.26725 0.01061,0.0319 0.0571,0.0599 0.103331,0.0623 0.226981,0.0119 0.280152,0.0219 0.275382,0.0521 -0.008,0.0506 0.004,0.0983 0.0232,0.0983 0.01,0 0.01259,-0.0246 0.006,-0.0546 z m -6.138201,4.0034 c 0,-0.038 0.02339,-0.0614 0.0519,-0.0519 0.081,0.027 0.0944,0.12101 0.0173,0.12101 -0.038,0 -0.0691,-0.0311 -0.0691,-0.0691 z m 0.153299,-0.0611 c -0.01511,-0.0244 0.004,-0.0444 0.0407,-0.0444 0.0767,0 0.088,0.0262 0.0274,0.0636 -0.02241,0.0138 -0.053,0.005 -0.0681,-0.0193 z m -0.913929,-0.11613 c -0.0366,-0.0953 0.01201,-0.13957 0.0635,-0.058 0.0516,0.0817 0.0528,0.12975 0.003,0.12975 -0.02151,0 -0.0514,-0.0323 -0.0665,-0.0718 z m -0.374858,-0.45097 c 0,-0.0232 -0.0295,-0.031 -0.0655,-0.0171 -0.0796,0.0305 -0.0868,-0.0432 -0.0104,-0.10659 0.0408,-0.0339 0.0681,-0.0183 0.10508,0.0601 0.0275,0.0582 0.0322,0.1059 0.0104,0.1059 -0.0217,0 -0.0395,-0.0191 -0.0395,-0.0423 z m -0.852563,-0.0562 c -0.0475,-0.0262 -0.112088,-0.0835 -0.143478,-0.12743 -0.0608,-0.0849 -0.183131,-0.10908 -0.183131,-0.0361 0,0.024 -0.0393,0.0436 -0.0874,0.0436 -0.048,0 -0.0874,-0.0196 -0.0874,-0.0436 0,-0.024 -0.0393,-0.0436 -0.0873,-0.0436 -0.048,0 -0.0873,-0.0197 -0.0873,-0.0437 0,-0.024 0.01979,-0.0437 0.0441,-0.0437 0.0862,0 -0.0601,-0.1662 -0.208838,-0.23711 -0.0994,-0.0474 -0.141032,-0.0926 -0.124622,-0.1354 0.01471,-0.0382 -7.94e-4,-0.0642 -0.0381,-0.0642 -0.0378,0 -0.0528,0.026 -0.0376,0.0655 0.01831,0.0477 -0.005,0.0655 -0.0861,0.0655 -0.0612,0 -0.123421,-0.0196 -0.138269,-0.0436 -0.01479,-0.024 0.01349,-0.0436 0.0629,-0.0436 0.0494,0 0.0924,-0.0197 0.0954,-0.0437 0.003,-0.024 0.008,-0.0617 0.0109,-0.0837 0.009,-0.0649 0.071,-0.11045 0.071,-0.052 0,0.0295 0.01741,0.0428 0.0387,0.0296 0.0213,-0.0132 0.063,0.006 0.0927,0.0411 0.0297,0.0358 0.0378,0.065 0.0181,0.065 -0.01979,0 -0.0132,0.0227 0.01471,0.0506 0.0383,0.0383 0.0661,0.0377 0.114469,-0.003 0.0513,-0.0426 0.106111,-0.0317 0.27754,0.0553 0.11751,0.0596 0.239379,0.13928 0.27083,0.17718 0.0315,0.0379 0.11134,0.0689 0.17752,0.0689 0.121581,0 0.241861,-0.093 0.18887,-0.14596 -0.0158,-0.0158 -0.007,-0.0288 0.01961,-0.0288 0.0931,0 0.100891,0.087 0.0159,0.17828 -0.0575,0.0617 -0.114591,0.0829 -0.173241,0.0643 -0.15277,-0.0485 -0.162031,0.0688 -0.01569,0.19948 0.142891,0.12768 0.134181,0.19649 -0.0145,0.11454 z m 0.520031,-0.12791 c -0.02029,-0.0329 -0.008,-0.0414 0.0361,-0.0246 0.0371,0.0142 0.0872,0.006 0.111421,-0.0182 0.0296,-0.0296 0.0537,-0.0285 0.0734,0.004 0.01619,0.0261 0.02331,0.0489 0.0159,0.0507 -0.13858,0.0334 -0.211399,0.0299 -0.23682,-0.0113 z m -1.966119,-0.12972 c -0.0208,-0.0335 -0.0912,-0.0948 -0.156422,-0.13625 -0.166978,-0.10615 -0.22947,-0.23286 -0.133088,-0.26985 0.0409,-0.0157 0.0601,-0.0143 0.0428,0.003 -0.0442,0.0442 0.10154,0.19548 0.155951,0.16185 0.02511,-0.0155 0.0313,-0.006 0.01421,0.0216 -0.01831,0.0298 0.01349,0.0601 0.0806,0.077 0.119658,0.03 0.130278,0.0513 0.0717,0.14372 -0.032,0.0505 -0.0438,0.0504 -0.0758,-0.001 z m 0.141579,-0.0118 c 0.0131,-0.0341 0.054,-0.0737 0.0908,-0.0878 0.048,-0.0184 0.0594,-0.006 0.0403,0.0438 -0.01471,0.0383 -0.0267,0.0778 -0.0267,0.0878 0,0.0101 -0.0288,0.0183 -0.0641,0.0183 -0.0376,0 -0.0543,-0.0258 -0.0403,-0.0621 z m 1.676669,-0.0252 c -0.0589,-0.11007 -0.01,-0.11007 0.131022,0 0.108019,0.0845 0.108159,0.0854 0.01249,0.0864 -0.0532,5.9e-4 -0.11776,-0.0383 -0.143469,-0.0864 z m -1.397538,-0.0193 c 0,-0.0106 0.01971,-0.0314 0.0437,-0.0463 0.024,-0.0148 0.0436,-0.006 0.0436,0.0193 0,0.0254 -0.01971,0.0463 -0.0436,0.0463 -0.024,0 -0.0437,-0.009 -0.0437,-0.0193 z m 0.156469,-0.0622 c -0.01879,-0.0305 -0.02241,-0.0671 -0.008,-0.0815 0.0391,-0.0391 0.0817,0.0184 0.0606,0.0817 -0.01479,0.0444 -0.02511,0.0444 -0.0526,-1.7e-4 z m -0.607101,-0.16533 c -0.0164,-0.0164 -0.0321,-0.11985 -0.0349,-0.22995 -0.004,-0.16856 -0.009,-0.17987 -0.0327,-0.0716 -0.01519,0.0707 -0.0424,0.12475 -0.0603,0.12011 -0.01799,-0.005 -0.0502,-0.008 -0.0716,-0.008 -0.0887,0 -0.0936,-0.29835 -0.008,-0.50848 0.0838,-0.20664 0.0955,-0.20329 0.112901,0.0325 0.01241,0.16765 0.063,0.22458 0.17958,0.20229 0.0684,-0.0131 0.104058,2.9e-4 0.104058,0.0396 0,0.0327 -0.0442,0.0607 -0.0983,0.0622 l -0.0983,0.003 0.0983,0.0395 c 0.0541,0.0217 0.098,0.0647 0.0976,0.0955 -5.3e-4,0.0431 -0.009,0.0424 -0.0382,-0.004 -0.02061,-0.0326 -0.0485,-0.0415 -0.062,-0.0198 -0.01349,0.0217 -0.006,0.068 0.01569,0.10292 0.02199,0.0349 0.0389,0.0929 0.0373,0.12894 -0.0021,0.0513 -0.008,0.0526 -0.0264,0.006 -0.0167,-0.0419 -0.0327,-0.045 -0.0541,-0.0103 -0.0168,0.0271 -0.0439,0.0358 -0.0602,0.0196 z m 4.344883,-0.14624 c 0.02201,-0.066 0.0922,-0.0728 0.112828,-0.0109 0.01,0.03 -0.0145,0.0546 -0.0546,0.0546 -0.04,0 -0.0662,-0.0196 -0.0582,-0.0436 z m -3.672332,-0.0618 c -0.0021,-0.0461 0.008,-0.0718 0.02291,-0.0573 0.0145,0.0145 0.01609,0.0522 0.004,0.0837 -0.014,0.0349 -0.02429,0.0245 -0.0264,-0.0263 z m -1.07637,-0.25475 c -0.05,-0.4093 -0.0507,-0.42795 -0.0173,-0.44865 0.01701,-0.0105 0.0445,0.10331 0.061,0.25297 0.01651,0.14966 0.0408,0.31633 0.054,0.37037 0.0131,0.0541 0.004,0.0983 -0.02019,0.0983 -0.02432,0 -0.0591,-0.12283 -0.0775,-0.27295 z m 0.676639,0.26203 c -0.0329,-0.1105 -0.0322,-0.22933 0.0011,-0.28731 0.0325,-0.0558 0.0429,-0.0292 0.0439,0.11262 7.94e-4,0.10207 -0.008,0.1856 -0.0205,0.1856 -0.01199,0 -0.02331,-0.005 -0.02511,-0.0109 z m 1.968532,-0.36124 c 0,-0.0366 -0.0492,-0.0888 -0.10918,-0.11619 -0.095,-0.0433 -0.151252,-0.12307 -0.0868,-0.12307 0.0402,0 0.21699,0.1081 0.249872,0.15285 0.0465,0.0633 0.0405,0.15286 -0.01029,0.15286 -0.024,0 -0.0436,-0.0299 -0.0436,-0.0665 z m -2.18364,-0.28293 c -0.0317,-0.0592 -0.0322,-0.0873 -0.0011,-0.0873 0.0249,0 0.0452,-0.0307 0.0452,-0.0681 0,-0.0375 0.0196,-0.056 0.0437,-0.0411 0.056,0.0346 0.0574,0.28388 0.0011,0.28388 -0.0232,0 -0.0632,-0.0393 -0.0889,-0.0873 z m -0.217691,-0.13936 c 2.64e-4,-0.0314 0.01971,-0.0866 0.043,-0.12268 0.0344,-0.0533 0.0424,-0.0476 0.043,0.0302 2.64e-4,0.0526 -0.019,0.10783 -0.043,0.12267 -0.024,0.0149 -0.0433,0.001 -0.043,-0.0302 z m -0.268338,-0.1336 c -0.0173,-0.43575 0.13716,-1.43478 0.226768,-1.46667 0.02249,-0.008 0.041,-0.0587 0.041,-0.11257 0,-0.11832 0.20316,-0.63575 0.281501,-0.71695 0.0463,-0.048 0.0606,-0.0458 0.0832,0.0132 0.01741,0.0453 0.01,0.0604 -0.0205,0.0416 -0.0317,-0.0196 -0.0383,5.8e-4 -0.0195,0.0598 0.019,0.0599 -9e-5,0.11593 -0.058,0.16984 -0.0919,0.0856 -0.17939,0.27883 -0.17939,0.39616 0,0.0593 0.01061,0.0571 0.0641,-0.0137 0.0353,-0.0466 0.0648,-0.13881 0.0655,-0.20487 7.93e-4,-0.0661 0.02101,-0.1201 0.0451,-0.1201 0.079,0 0.0456,0.29932 -0.0546,0.48998 -0.0842,0.16011 -0.100258,0.17285 -0.112209,0.0887 -0.008,-0.054 -0.03,-0.0983 -0.0495,-0.0983 -0.0852,0 -0.127059,0.53931 -0.0457,0.58958 0.0727,0.0449 0.0533,0.2096 -0.02119,0.18099 -0.0962,-0.0369 -0.140978,0.0895 -0.144719,0.40859 -0.005,0.43124 -0.006,0.43673 -0.0525,0.43673 -0.024,0 -0.0462,-0.0639 -0.0493,-0.14194 z m 0.408609,-0.007 c 0.01349,-0.0702 0.003,-0.0985 -0.0326,-0.085 -0.0692,0.0266 -0.12936,-0.33035 -0.0663,-0.3934 0.0313,-0.0313 0.0453,-0.006 0.0453,0.0811 0,0.0773 0.045,0.17343 0.11584,0.24736 0.0968,0.10098 0.10667,0.13197 0.0601,0.188 -0.0832,0.10028 -0.145161,0.081 -0.122401,-0.0381 z m 5.134801,-0.73334 c 0.0407,-0.0407 0.064,-0.0407 0.10482,0 0.0407,0.0407 0.0291,0.0524 -0.0524,0.0524 -0.0815,0 -0.0932,-0.0116 -0.0524,-0.0524 z m 0.270787,0.006 c 0,-0.0278 0.0278,-0.0398 0.0619,-0.0268 0.0341,0.0131 0.0732,-0.006 0.087,-0.0418 0.01519,-0.0397 0.0468,-0.0521 0.08,-0.0313 0.0302,0.0188 0.0972,0.0287 0.149002,0.022 0.0517,-0.006 0.106948,0.009 0.122668,0.0341 0.0159,0.0258 -0.006,0.0475 -0.0504,0.0489 -0.0434,10e-4 -0.162528,0.0123 -0.26461,0.024 -0.123691,0.0142 -0.185609,0.004 -0.185609,-0.0292 z m 0.602682,-0.006 c 0.0407,-0.0407 0.064,-0.0407 0.104819,0 0.0407,0.0407 0.0291,0.0524 -0.0524,0.0524 -0.0815,0 -0.0932,-0.0116 -0.0524,-0.0524 z m -1.007689,-0.23514 c -0.0666,-0.0361 -0.143352,-0.052 -0.170523,-0.0352 -0.0303,0.0187 -0.0373,0.011 -0.0182,-0.0199 0.01979,-0.032 -0.003,-0.0504 -0.0614,-0.0504 -0.0509,0 -0.083,0.0154 -0.0713,0.0343 0.01159,0.0189 -0.0167,0.0344 -0.0629,0.0344 -0.116181,0 -0.1054,-0.0608 0.02101,-0.11839 0.0848,-0.0387 0.156502,-0.028 0.371221,0.0553 0.261599,0.10145 0.340249,0.17084 0.18969,0.1674 -0.042,-7.1e-4 -0.130941,-0.0313 -0.197562,-0.0674 z m 3.898928,-0.58331 c 0,-0.0254 0.0196,-0.0463 0.0436,-0.0463 0.024,0 0.0436,0.009 0.0436,0.0193 0,0.0106 -0.01961,0.0314 -0.0436,0.0463 -0.024,0.0149 -0.0436,0.006 -0.0436,-0.0193 z m 0.0874,-0.80794 c 0,-0.0106 0.01971,-0.0314 0.0437,-0.0463 0.024,-0.0149 0.0436,-0.006 0.0436,0.0193 0,0.0254 -0.0196,0.0463 -0.0436,0.0463 -0.024,0 -0.0437,-0.009 -0.0437,-0.0193 z m -8.647241,-0.21579 c 0,-0.0361 0.01961,-0.0777 0.0436,-0.0925 0.024,-0.0149 0.0436,0.003 0.0436,0.0385 0,0.0361 -0.0196,0.0777 -0.0436,0.0925 -0.024,0.0149 -0.0436,-0.003 -0.0436,-0.0385 z m 0.174681,-0.003 c 0,-0.0106 0.01961,-0.0314 0.0437,-0.0463 0.024,-0.0149 0.0436,-0.006 0.0436,0.0193 0,0.0254 -0.01961,0.0462 -0.0436,0.0462 -0.024,0 -0.0437,-0.009 -0.0437,-0.0193 z m 0.26203,-0.24021 c 0,-0.0254 0.01969,-0.0463 0.0437,-0.0463 0.024,0 0.0436,0.009 0.0436,0.0193 0,0.0105 -0.01961,0.0314 -0.0436,0.0462 -0.024,0.0149 -0.0437,0.006 -0.0437,-0.0193 z m 0.0645,-0.39724 c -0.01479,-0.024 -0.0501,-0.0296 -0.0784,-0.0125 -0.0294,0.0176 -0.0258,-7.1e-4 0.008,-0.0429 0.0623,-0.0768 0.202879,-0.0996 0.240367,-0.039 0.0118,0.0192 -0.0155,0.0581 -0.0609,0.0865 -0.0533,0.0333 -0.092,0.0361 -0.10937,0.008 z m 5.77411,-0.6148 c -0.0435,-0.0253 -0.108393,-0.0348 -0.144212,-0.021 -0.0368,0.0141 -0.0535,0.006 -0.0385,-0.0182 0.01471,-0.0237 0.003,-0.0431 -0.0269,-0.0431 -0.0968,0 0.0021,-0.0578 0.120381,-0.0704 0.136009,-0.0145 0.37915,0.0991 0.34173,0.15965 -0.0336,0.0544 -0.152849,0.0512 -0.252621,-0.007 z"
       inkscape:connector-curvature="0" />
  </g>
</svg>
