<?xml version="1.0" encoding="UTF-8" standalone="no"?>
<!-- Created with Inkscape (http://www.inkscape.org/) -->

<svg
   xmlns:dc="http://purl.org/dc/elements/1.1/"
   xmlns:cc="http://creativecommons.org/ns#"
   xmlns:rdf="http://www.w3.org/1999/02/22-rdf-syntax-ns#"
   xmlns:svg="http://www.w3.org/2000/svg"
   xmlns="http://www.w3.org/2000/svg"
   xmlns:sodipodi="http://sodipodi.sourceforge.net/DTD/sodipodi-0.dtd"
   xmlns:inkscape="http://www.inkscape.org/namespaces/inkscape"
   width="17.15914mm"
   height="15.11901mm"
   viewBox="0 0 17.15914 15.119009"
   version="1.1"
   id="svg12249"
   inkscape:version="0.92.4 (5da689c313, 2019-01-14)"
   sodipodi:docname="graph.svg">
  <defs
     id="defs12243" />
  <sodipodi:namedview
     id="base"
     pagecolor="#ffffff"
     bordercolor="#666666"
     borderopacity="1.0"
     inkscape:pageopacity="0.0"
     inkscape:pageshadow="2"
     inkscape:zoom="5.6"
     inkscape:cx="30.424317"
     inkscape:cy="34.565282"
     inkscape:document-units="mm"
     inkscape:current-layer="layer1"
     showgrid="false"
     inkscape:window-width="1280"
     inkscape:window-height="657"
     inkscape:window-x="-8"
     inkscape:window-y="-8"
     inkscape:window-maximized="1" />
  <metadata
     id="metadata12246">
    <rdf:RDF>
      <cc:Work
         rdf:about="">
        <dc:format>image/svg+xml</dc:format>
        <dc:type
           rdf:resource="http://purl.org/dc/dcmitype/StillImage" />
        <dc:title />
      </cc:Work>
    </rdf:RDF>
  </metadata>
  <g
     inkscape:label="Layer 1"
     inkscape:groupmode="layer"
     id="layer1"
     transform="translate(-12.514947,-105.76023)">
    <path
       id="path10828"
       d="m 28.664727,105.76031 a 1.0093618,1.3744531 0 0 0 -1.009362,1.37445 1.0093618,1.3744531 0 0 0 0.203901,0.82616 l -3.928462,7.48921 a 1.0093618,1.3744531 0 0 0 -0.312888,-0.0686 1.0093618,1.3744531 0 0 0 -0.466392,0.15621 l -3.686018,-5.0193 a 1.0093618,1.3744531 0 0 0 0.114969,-0.63473 1.0093618,1.3744531 0 0 0 -1.009359,-1.37446 1.0093618,1.3744531 0 0 0 -1.009369,1.37446 1.0093618,1.3744531 0 0 0 0.208838,0.83554 l -3.87109,7.51079 a 1.0093618,1.3744531 0 0 0 -0.375189,-0.0997 1.0093618,1.3744531 0 0 0 -1.009359,1.37445 1.0093618,1.3744531 0 0 0 1.009359,1.37445 1.0093618,1.3744531 0 0 0 1.009359,-1.37445 1.0093618,1.3744531 0 0 0 -0.16436,-0.75089 l 3.89671,-7.56062 a 1.0093618,1.3744531 0 0 0 0.305101,0.0648 1.0093618,1.3744531 0 0 0 0.466371,-0.15623 l 3.686047,5.01931 a 1.0093618,1.3744531 0 0 0 -0.11498,0.63475 1.0093618,1.3744531 0 0 0 1.009362,1.37444 1.0093618,1.3744531 0 0 0 1.00937,-1.37444 1.0093618,1.3744531 0 0 0 -0.203891,-0.82616 l 3.928491,-7.48922 a 1.0093618,1.3744531 0 0 0 0.312841,0.0686 1.0093618,1.3744531 0 0 0 1.009359,-1.37445 1.0093618,1.3744531 0 0 0 -1.009359,-1.37445 z"
       style="color:#000000;clip-rule:nonzero;display:inline;overflow:visible;visibility:visible;opacity:1;isolation:auto;mix-blend-mode:normal;color-interpolation:sRGB;color-interpolation-filters:linearRGB;solid-color:#000000;solid-opacity:1;fill:#555555;fill-opacity:1;fill-rule:nonzero;stroke:none;stroke-width:0.02355691;stroke-linecap:round;stroke-linejoin:round;stroke-miterlimit:4;stroke-dasharray:none;stroke-dashoffset:0;stroke-opacity:1;color-rendering:auto;image-rendering:auto;shape-rendering:auto;text-rendering:auto;enable-background:accumulate"
       inkscape:connector-curvature="0" />
  </g>
</svg>
