<?xml version="1.0" encoding="UTF-8" standalone="no"?>
<!-- Created with Inkscape (http://www.inkscape.org/) -->

<svg
   xmlns:dc="http://purl.org/dc/elements/1.1/"
   xmlns:cc="http://creativecommons.org/ns#"
   xmlns:rdf="http://www.w3.org/1999/02/22-rdf-syntax-ns#"
   xmlns:svg="http://www.w3.org/2000/svg"
   xmlns="http://www.w3.org/2000/svg"
   xmlns:sodipodi="http://sodipodi.sourceforge.net/DTD/sodipodi-0.dtd"
   xmlns:inkscape="http://www.inkscape.org/namespaces/inkscape"
   width="12.578992mm"
   height="11.895248mm"
   viewBox="0 0 12.578992 11.895248"
   version="1.1"
   id="svg12249"
   inkscape:version="0.92.4 (5da689c313, 2019-01-14)"
   sodipodi:docname="house.svg">
  <defs
     id="defs12243" />
  <sodipodi:namedview
     id="base"
     pagecolor="#ffffff"
     bordercolor="#666666"
     borderopacity="1.0"
     inkscape:pageopacity="0.0"
     inkscape:pageshadow="2"
     inkscape:zoom="0.98994949"
     inkscape:cx="53.78316"
     inkscape:cy="-28.48764"
     inkscape:document-units="mm"
     inkscape:current-layer="layer1"
     showgrid="false"
     inkscape:window-width="1280"
     inkscape:window-height="657"
     inkscape:window-x="-8"
     inkscape:window-y="-8"
     inkscape:window-maximized="1" />
  <metadata
     id="metadata12246">
    <rdf:RDF>
      <cc:Work
         rdf:about="">
        <dc:format>image/svg+xml</dc:format>
        <dc:type
           rdf:resource="http://purl.org/dc/dcmitype/StillImage" />
        <dc:title></dc:title>
      </cc:Work>
    </rdf:RDF>
  </metadata>
  <g
     inkscape:label="Layer 1"
     inkscape:groupmode="layer"
     id="layer1"
     transform="translate(-38.098719,-110.37976)">
    <g
       id="g10826"
       transform="matrix(0.58927582,0,0,0.58927582,-159.52554,-10.001982)"
       style="stroke:#5a5a5a;stroke-opacity:1">
      <g
         id="g10824"
         transform="translate(6.8033386)">
        <path
           style="fill:#555555;fill-opacity:1;stroke:#5a5a5a;stroke-width:0.07808635;stroke-opacity:1"
           id="path10818"
           d="m 346.69289,214.55674 z m 0,0 -7.45326,-6.60064 -7.45756,6.60353 v 9.43595 c 0,0.24369 0.19692,0.43919 0.44062,0.43919 h 4.66081 v -4.13718 c 0,-0.24369 0.1955,-0.44061 0.43919,-0.44061 h 3.82968 c 0.24368,0 0.43917,0.19692 0.43917,0.44061 v 4.13718 h 4.66223 c 0.24369,0 0.43919,-0.1955 0.43919,-0.43919 v -9.43907 z m -14.91059,0.003 z"
           inkscape:connector-curvature="0" />
        <path
           style="fill:#555555;fill-opacity:1;stroke:#5a5a5a;stroke-width:0.07808635;stroke-opacity:1"
           id="path10820"
           d="m 339.1966,204.34304 -10.5768,9.36568 1.11414,1.25696 9.50624,-8.41771 9.50388,8.41771 1.11204,-1.25696 -10.57446,-9.36568 -0.0411,0.0476 -0.0433,-0.0476 z"
           inkscape:connector-curvature="0" />
        <path
           style="fill:#555555;fill-opacity:1;stroke:#5a5a5a;stroke-width:0.07808635;stroke-opacity:1"
           id="path10822"
           d="m 331.78199,205.68613 h 2.68133 l -0.0234,1.58812 -2.65791,2.40115 v -3.98927 z"
           inkscape:connector-curvature="0" />
      </g>
    </g>
  </g>
</svg>
