<?xml version="1.0" encoding="UTF-8" standalone="no"?>
<!-- Created with Inkscape (http://www.inkscape.org/) -->

<svg
   xmlns:dc="http://purl.org/dc/elements/1.1/"
   xmlns:cc="http://creativecommons.org/ns#"
   xmlns:rdf="http://www.w3.org/1999/02/22-rdf-syntax-ns#"
   xmlns:svg="http://www.w3.org/2000/svg"
   xmlns="http://www.w3.org/2000/svg"
   xmlns:sodipodi="http://sodipodi.sourceforge.net/DTD/sodipodi-0.dtd"
   xmlns:inkscape="http://www.inkscape.org/namespaces/inkscape"
   width="14.298244mm"
   height="14.298244mm"
   viewBox="0 0 14.298245 14.298244"
   version="1.1"
   id="svg12249"
   inkscape:version="0.92.4 (5da689c313, 2019-01-14)"
   sodipodi:docname="search.svg">
  <defs
     id="defs12243" />
  <sodipodi:namedview
     id="base"
     pagecolor="#ffffff"
     bordercolor="#666666"
     borderopacity="1.0"
     inkscape:pageopacity="0.0"
     inkscape:pageshadow="2"
     inkscape:zoom="0.98994949"
     inkscape:cx="145.17315"
     inkscape:cy="-17.854392"
     inkscape:document-units="mm"
     inkscape:current-layer="layer1"
     showgrid="false"
     inkscape:window-width="1280"
     inkscape:window-height="657"
     inkscape:window-x="-8"
     inkscape:window-y="-8"
     inkscape:window-maximized="1" />
  <metadata
     id="metadata12246">
    <rdf:RDF>
      <cc:Work
         rdf:about="">
        <dc:format>image/svg+xml</dc:format>
        <dc:type
           rdf:resource="http://purl.org/dc/dcmitype/StillImage" />
        <dc:title></dc:title>
      </cc:Work>
    </rdf:RDF>
  </metadata>
  <g
     inkscape:label="Layer 1"
     inkscape:groupmode="layer"
     id="layer1"
     transform="translate(-13.91845,-110.79014)">
    <g
       id="g10816"
       transform="matrix(0.28596489,0,0,0.28596489,13.91845,110.79014)"
       style="stroke:none;stroke-width:0.34969327;stroke-miterlimit:4;stroke-dasharray:none;stroke-opacity:1">
      <rect
         id="rect10812"
         height="50"
         width="50"
         x="0"
         y="0"
         style="fill-opacity:0;stroke:none;stroke-width:0.34969327;stroke-miterlimit:4;stroke-dasharray:none;stroke-opacity:1" />
      <path
         id="path10814"
         style="color:#000000;text-indent:0;text-decoration:none;text-decoration-line:none;text-decoration-style:solid;text-decoration-color:#000000;text-transform:none;white-space:normal;isolation:auto;mix-blend-mode:normal;solid-color:#000000;fill:#555555;stroke:none;stroke-width:0.34969327;stroke-miterlimit:4;stroke-dasharray:none;stroke-opacity:1;color-rendering:auto;image-rendering:auto;shape-rendering:auto"
         d="m 18.623,4.2559 c -7.9132,0 -14.367,6.454 -14.367,14.367 0,7.9132 6.454,14.367 14.367,14.367 3.2414,0 6.2283,-1.0954 8.6367,-2.918 a 2.0002,2.0002 0 0 0 0.15039,0.16602 l 14.898,14.898 a 2.0002,2.0002 0 1 0 2.8281,-2.8281 l -14.898,-14.898 a 2.0002,2.0002 0 0 0 -0.16602,-0.15039 c 1.8225,-2.4084 2.918,-5.3953 2.918,-8.6367 0,-7.9132 -6.454,-14.367 -14.367,-14.367 z m 0,3.5898 c 5.9732,0 10.777,4.8042 10.777,10.777 0,5.9732 -4.8042,10.777 -10.777,10.777 -5.9728,0 -10.777,-4.8042 -10.777,-10.777 2e-7,-5.9732 4.8042,-10.777 10.777,-10.777 z"
         inkscape:connector-curvature="0" />
    </g>
  </g>
</svg>
